# Blender 4.3.2
# www.blender.org
mtllib untitled.mtl
o cube
v 0.062500 0.375000 0.050000
v 0.062500 0.375000 -0.056250
v 0.062500 0.000000 0.050000
v 0.062500 -0.000000 -0.056250
v 0.000000 0.375000 -0.056250
v 0.000000 0.375000 0.050000
v 0.000000 -0.000000 -0.056250
v 0.000000 0.000000 0.050000
vn -0.0000 -0.0000 -1.0000
vn 1.0000 -0.0000 -0.0000
vn -0.0000 -0.0000 1.0000
vn -1.0000 -0.0000 -0.0000
vn -0.0000 1.0000 -0.0000
vn -0.0000 -1.0000 -0.0000
vt 0.375000 0.250000
vt 0.437500 0.250000
vt 0.437500 0.625000
vt 0.375000 0.625000
vt 0.250000 0.625000
vt 0.359375 0.625000
vt 0.359375 1.000000
vt 0.250000 1.000000
vt 0.500000 0.250000
vt 0.500000 0.625000
vt 0.484375 0.625000
vt 0.484375 1.000000
vt 0.375000 1.000000
vt 0.750000 0.750000
vt 0.687500 0.750000
vt 0.687500 0.640625
vt 0.750000 0.640625
vt 0.812500 0.640625
vt 0.812500 0.750000
s 1
usemtl m_ce793e7d-44a6-20dc-f1cc-303c4799443f
f 4/1/1 7/2/1 5/3/1 2/4/1
f 3/5/2 4/6/2 2/7/2 1/8/2
f 8/2/3 3/9/3 1/10/3 6/3/3
f 7/4/4 8/11/4 6/12/4 5/13/4
f 6/14/5 1/15/5 2/16/5 5/17/5
f 7/18/6 4/17/6 3/14/6 8/19/6
o cube.001
v 0.062500 0.437500 0.068750
v 0.062500 0.437500 -0.068750
v 0.062500 0.375000 0.068750
v 0.062500 0.375000 -0.068750
v 0.000000 0.437500 -0.068750
v 0.000000 0.437500 0.068750
v 0.000000 0.375000 -0.068750
v 0.000000 0.375000 0.068750
vn -0.0000 -0.0000 -1.0000
vn 1.0000 -0.0000 -0.0000
vn -0.0000 -0.0000 1.0000
vn -1.0000 -0.0000 -0.0000
vn -0.0000 1.0000 -0.0000
vn -0.0000 -1.0000 -0.0000
vt 0.437500 0.187500
vt 0.500000 0.187500
vt 0.500000 0.250000
vt 0.437500 0.250000
vt 0.625000 0.562500
vt 0.765625 0.562500
vt 0.765625 0.625000
vt 0.625000 0.625000
vt 0.562500 0.187500
vt 0.562500 0.250000
vt 0.625000 0.500000
vt 0.765625 0.500000
vt 0.687500 0.500000
vt 0.625000 0.359375
vt 0.687500 0.359375
vt 0.625000 0.234375
vt 0.562500 0.234375
vt 0.562500 0.375000
vt 0.625000 0.375000
s 1
usemtl m_ce793e7d-44a6-20dc-f1cc-303c4799443f
f 12/20/7 15/21/7 13/22/7 10/23/7
f 11/24/8 12/25/8 10/26/8 9/27/8
f 16/21/9 11/28/9 9/29/9 14/22/9
f 15/30/10 16/31/10 14/25/10 13/24/10
f 14/32/11 9/30/11 10/33/11 13/34/11
f 15/35/12 12/36/12 11/37/12 16/38/12
o cube.002
v 0.031250 0.937500 0.062500
v 0.031250 0.937500 -0.062500
v 0.031250 0.437500 0.062500
v 0.031250 0.437500 -0.062500
v 0.031250 0.937500 -0.062500
v 0.031250 0.937500 0.062500
v 0.031250 0.437500 -0.062500
v 0.031250 0.437500 0.062500
vn -0.0000 -0.0000 -1.0000
vn 1.0000 -0.0000 -0.0000
vn -0.0000 -0.0000 1.0000
vn -1.0000 -0.0000 -0.0000
vn -0.0000 -0.0000 -0.0000
vt 0.000000 0.500000
vt 0.000000 1.000000
vt 0.125000 0.500000
vt 0.125000 1.000000
vt 0.250000 0.500000
vt 0.250000 1.000000
vt 0.000000 0.875000
s 0
usemtl m_ce793e7d-44a6-20dc-f1cc-303c4799443f
f 20/39/13 23/39/13 21/40/13 18/40/13
s 1
f 19/39/14 20/41/14 18/42/14 17/40/14
s 0
f 24/39/15 19/39/15 17/40/15 22/40/15
s 1
f 23/41/16 24/43/16 22/44/16 21/42/16
s 0
f 22/40/17 17/40/17 18/45/17 21/45/17
f 23/45/17 20/45/17 19/40/17 24/40/17
o cube.003
v 0.031256 1.434795 0.018684
v 0.031256 1.429347 -0.043578
v 0.031256 0.936697 0.062262
v 0.031256 0.931250 -0.000000
v 0.031256 1.429347 -0.043578
v 0.031256 1.434795 0.018684
v 0.031256 0.931250 -0.000000
v 0.031256 0.936697 0.062262
vn -0.0000 -0.0000 -1.0000
vn -0.0000 -0.0871 -0.9962
vn 1.0000 -0.0000 -0.0000
vn -0.0000 -0.0000 1.0000
vn -0.0000 0.0871 0.9962
vn -1.0000 -0.0000 -0.0000
vn -0.0000 0.9962 -0.0871
vn -0.0000 0.9962 -0.0870
vn -0.0000 -0.9962 0.0872
vn -0.0000 -0.9962 0.0871
vt 0.000000 0.500000
vt 0.000000 1.000000
vt 0.250000 0.125000
vt 0.312500 0.125000
vt 0.312500 0.625000
vt 0.250000 0.625000
vt 0.375000 0.125000
vt 0.375000 0.625000
vt 0.000000 0.937500
s 0
usemtl m_ce793e7d-44a6-20dc-f1cc-303c4799443f
f 28/46/18 31/46/19 29/47/18 26/47/19
s 1
f 27/48/20 28/49/20 26/50/20 25/51/20
s 0
f 32/46/21 27/46/22 25/47/21 30/47/22
s 1
f 31/49/23 32/52/23 30/53/23 29/50/23
s 0
f 30/47/18 25/47/24 26/54/18 29/54/25
f 31/54/21 28/54/26 27/47/21 32/47/27
o cube.004
v 0.031250 1.250000 -0.000000
v 0.031250 1.250000 -0.062500
v 0.031250 0.937500 -0.000000
v 0.031250 0.937500 -0.062500
v 0.031250 1.250000 -0.062500
v 0.031250 1.250000 -0.000000
v 0.031250 0.937500 -0.062500
v 0.031250 0.937500 -0.000000
vn -0.0000 -0.0000 -1.0000
vn 1.0000 -0.0000 -0.0000
vn -0.0000 -0.0000 1.0000
vn -1.0000 -0.0000 -0.0000
vn -0.0000 -0.0000 -0.0000
vt 0.000000 0.687500
vt 0.000000 1.000000
vt 0.000000 0.187500
vt 0.062500 0.187500
vt 0.062500 0.500000
vt 0.000000 0.500000
vt 0.500000 0.687500
vt 0.562500 0.687500
vt 0.562500 1.000000
vt 0.500000 1.000000
vt 0.000000 0.937500
s 0
usemtl m_ce793e7d-44a6-20dc-f1cc-303c4799443f
f 36/55/28 39/55/28 37/56/28 34/56/28
s 1
f 35/57/29 36/58/29 34/59/29 33/60/29
s 0
f 40/55/30 35/55/30 33/56/30 38/56/30
s 1
f 39/61/31 40/62/31 38/63/31 37/64/31
s 0
f 38/56/32 33/56/32 34/65/32 37/65/32
f 39/65/32 36/65/32 35/56/32 40/56/32
o cube.005
v 0.031262 1.621581 0.002342
v 0.031262 1.616134 -0.059920
v 0.031262 1.434795 0.018684
v 0.031262 1.429347 -0.043578
v 0.031262 1.616134 -0.059920
v 0.031262 1.621581 0.002342
v 0.031262 1.429347 -0.043578
v 0.031262 1.434795 0.018684
vn -0.0000 -0.0000 -1.0000
vn -0.0000 -0.0871 -0.9962
vn 1.0000 -0.0000 -0.0000
vn -0.0000 -0.0000 1.0000
vn -0.0000 0.0871 0.9962
vn -1.0000 -0.0000 -0.0000
vn -0.0000 0.9962 -0.0871
vn -0.0000 0.9962 -0.0870
vn -0.0000 -0.9962 0.0872
vn -0.0000 -0.9962 0.0871
vt 0.000000 0.812500
vt 0.000000 1.000000
vt 0.187500 0.312500
vt 0.250000 0.312500
vt 0.250000 0.500000
vt 0.187500 0.500000
vt 0.500000 0.500000
vt 0.562500 0.500000
vt 0.562500 0.687500
vt 0.500000 0.687500
vt 0.000000 0.937500
s 0
usemtl m_ce793e7d-44a6-20dc-f1cc-303c4799443f
f 44/66/33 47/66/34 45/67/33 42/67/34
s 1
f 43/68/35 44/69/35 42/70/35 41/71/35
s 0
f 48/66/36 43/66/37 41/67/36 46/67/37
s 1
f 47/72/38 48/73/38 46/74/38 45/75/38
s 0
f 46/67/33 41/67/39 42/76/33 45/76/40
f 47/76/36 44/76/41 43/67/36 48/67/42
o cube.006
v 0.031250 1.691965 -0.050576
v 0.031250 1.690601 -0.081797
v 0.031250 1.248637 -0.031220
v 0.031250 1.247274 -0.062441
v 0.031250 1.690601 -0.081797
v 0.031250 1.691965 -0.050576
v 0.031250 1.247274 -0.062441
v 0.031250 1.248637 -0.031220
vn -0.0000 -0.0000 -1.0000
vn -0.0000 -0.0436 -0.9990
vn 1.0000 -0.0000 -0.0000
vn -0.0000 -0.0000 1.0000
vn -0.0000 0.0436 0.9990
vn -1.0000 -0.0000 -0.0000
vn -0.0000 0.9990 -0.0436
vn -0.0000 -0.9990 0.0436
vn -0.0000 -0.9991 0.0436
vt 0.000000 0.562500
vt 0.000000 1.000000
vt 0.062500 0.062500
vt 0.093750 0.062500
vt 0.093750 0.500000
vt 0.062500 0.500000
vt 0.125000 0.062500
vt 0.156250 0.062500
vt 0.156250 0.500000
vt 0.125000 0.500000
vt 0.000000 0.968750
s 0
usemtl m_ce793e7d-44a6-20dc-f1cc-303c4799443f
f 52/77/43 55/77/44 53/78/43 50/78/44
s 1
f 51/79/45 52/80/45 50/81/45 49/82/45
s 0
f 56/77/46 51/77/47 49/78/46 54/78/47
s 1
f 55/83/48 56/84/48 54/85/48 53/86/48
s 0
f 54/78/43 49/78/49 50/87/43 53/87/49
f 55/87/46 52/87/50 51/78/46 56/78/51
o cube.007
v 0.031269 1.729639 -0.061228
v 0.031269 1.716514 -0.083961
v 0.031269 1.621386 0.001272
v 0.031269 1.608261 -0.021461
v 0.031269 1.716514 -0.083961
v 0.031269 1.729639 -0.061228
v 0.031269 1.608261 -0.021461
v 0.031269 1.621386 0.001272
vn -0.0000 -0.0000 -1.0000
vn -0.0000 -0.5000 -0.8660
vn 1.0000 -0.0000 -0.0000
vn -0.0000 -0.0000 1.0000
vn -0.0000 0.5000 0.8660
vn -1.0000 -0.0000 -0.0000
vn -0.0000 0.8660 -0.5000
vn -0.0000 0.8660 -0.5001
vn -0.0000 -0.8660 0.5000
vt 0.000000 0.875000
vt 0.000000 1.000000
vt 0.750000 0.375000
vt 0.781250 0.375000
vt 0.781250 0.500000
vt 0.750000 0.500000
vt 0.750000 0.250000
vt 0.781250 0.250000
vt 0.000000 0.968750
s 0
usemtl m_ce793e7d-44a6-20dc-f1cc-303c4799443f
f 60/88/52 63/88/53 61/89/52 58/89/53
s 1
f 59/90/54 60/91/54 58/92/54 57/93/54
s 0
f 64/88/55 59/88/56 57/89/55 62/89/56
s 1
f 63/94/57 64/95/57 62/91/57 61/90/57
s 0
f 62/89/52 57/89/58 58/96/52 61/96/59
f 63/96/55 60/96/60 59/89/55 64/89/60
o cube.008
v 0.031250 1.580935 -0.014449
v 0.031250 1.579572 -0.045669
v 0.031250 1.250000 -0.000000
v 0.031250 1.248637 -0.031220
v 0.031250 1.579572 -0.045669
v 0.031250 1.580935 -0.014449
v 0.031250 1.248637 -0.031220
v 0.031250 1.250000 -0.000000
vn -0.0000 -0.0000 -1.0000
vn -0.0000 -0.0436 -0.9990
vn 1.0000 -0.0000 -0.0000
vn -0.0000 -0.0000 1.0000
vn -0.0000 0.0436 0.9990
vn -1.0000 -0.0000 -0.0000
vn -0.0000 0.9990 -0.0436
vn -0.0000 -0.9990 0.0436
vn -0.0000 -0.9991 0.0436
vt 0.000000 0.671875
vt 0.000000 1.000000
vt 0.562500 0.421875
vt 0.593750 0.421875
vt 0.593750 0.750000
vt 0.562500 0.750000
vt 0.625000 0.671875
vt 0.656250 0.671875
vt 0.656250 1.000000
vt 0.625000 1.000000
vt 0.000000 0.968750
s 0
usemtl m_ce793e7d-44a6-20dc-f1cc-303c4799443f
f 68/97/61 71/97/62 69/98/61 66/98/62
s 1
f 67/99/63 68/100/63 66/101/63 65/102/63
s 0
f 72/97/64 67/97/65 65/98/64 70/98/65
s 1
f 71/103/66 72/104/66 70/105/66 69/106/66
s 0
f 70/98/61 65/98/67 66/107/61 69/107/67
f 71/107/64 68/107/68 67/98/64 72/98/69
o cube.009
v 0.031256 1.669050 -0.053671
v 0.031256 1.656550 -0.075322
v 0.031256 1.609511 -0.019296
v 0.031256 1.597011 -0.040947
v 0.031256 1.656550 -0.075322
v 0.031256 1.669050 -0.053671
v 0.031256 1.597011 -0.040947
v 0.031256 1.609511 -0.019296
vn -0.0000 -0.0000 -1.0000
vn -0.0000 -0.5000 -0.8660
vn 1.0000 -0.0000 -0.0000
vn -0.0000 -0.0000 1.0000
vn -0.0000 0.5000 0.8660
vn -1.0000 -0.0000 -0.0000
vn -0.0000 0.8660 -0.5000
vn -0.0000 0.8660 -0.5001
vn -0.0000 -0.8660 0.5000
vt 0.000000 0.937500
vt 0.000000 1.000000
vt 0.687500 0.187500
vt 0.718750 0.187500
vt 0.718750 0.250000
vt 0.687500 0.250000
vt 0.750000 0.187500
vt 0.781250 0.187500
vt 0.781250 0.250000
vt 0.750000 0.250000
vt 0.000000 0.968750
s 0
usemtl m_ce793e7d-44a6-20dc-f1cc-303c4799443f
f 76/108/70 79/108/71 77/109/70 74/109/71
s 1
f 75/110/72 76/111/72 74/112/72 73/113/72
s 0
f 80/108/73 75/108/74 73/109/73 78/109/74
s 1
f 79/114/75 80/115/75 78/116/75 77/117/75
s 0
f 78/109/70 73/109/76 74/118/70 77/118/77
f 79/118/73 76/118/78 75/109/73 80/109/78
o cube.010
v 0.031250 1.730323 -0.060384
v 0.031250 1.729315 -0.083487
v 0.031250 1.685366 -0.058421
v 0.031250 1.684357 -0.081524
v 0.031250 1.729315 -0.083487
v 0.031250 1.730323 -0.060384
v 0.031250 1.684357 -0.081524
v 0.031250 1.685366 -0.058421
vn -0.0000 -0.0000 -1.0000
vn -0.0000 -0.0436 -0.9990
vn 1.0000 -0.0000 -0.0000
vn -0.0000 -0.0000 1.0000
vn -0.0000 0.0436 0.9990
vn -1.0000 -0.0000 -0.0000
vn -0.0000 0.9990 -0.0436
vn -0.0000 -0.9990 0.0436
vn -0.0000 -0.9991 0.0436
vt 0.000000 0.953125
vt 0.000000 1.000000
vt 0.812500 0.765625
vt 0.828125 0.765625
vt 0.828125 0.812500
vt 0.812500 0.812500
vt 0.812500 0.703125
vt 0.828125 0.703125
vt 0.828125 0.750000
vt 0.812500 0.750000
vt 0.000000 0.984375
s 0
usemtl m_ce793e7d-44a6-20dc-f1cc-303c4799443f
f 84/119/79 87/119/80 85/120/79 82/120/80
s 1
f 83/121/81 84/122/81 82/123/81 81/124/81
s 0
f 88/119/82 83/119/83 81/120/82 86/120/83
s 1
f 87/125/84 88/126/84 86/127/84 85/128/84
s 0
f 86/120/79 81/120/85 82/129/79 85/129/85
f 87/129/82 84/129/86 83/120/82 88/120/87
o cube.011
v 0.050000 0.687500 -0.018750
v 0.050000 0.687500 -0.062500
v 0.050000 0.437500 -0.018750
v 0.050000 0.437500 -0.062500
v 0.012500 0.687500 -0.062500
v 0.012500 0.687500 -0.018750
v 0.012500 0.437500 -0.062500
v 0.012500 0.437500 -0.018750
vn -0.0000 -0.0000 -1.0000
vn 1.0000 -0.0000 -0.0000
vn -0.0000 -0.0000 1.0000
vn -1.0000 -0.0000 -0.0000
vn -0.0000 1.0000 -0.0000
vn -0.0000 -1.0000 -0.0000
vt 0.687500 0.750000
vt 0.718750 0.750000
vt 0.718750 1.000000
vt 0.687500 1.000000
vt 0.500000 0.250000
vt 0.546875 0.250000
vt 0.546875 0.500000
vt 0.500000 0.500000
vt 0.187500 0.062500
vt 0.218750 0.062500
vt 0.218750 0.312500
vt 0.187500 0.312500
vt 0.562500 0.750000
vt 0.609375 0.750000
vt 0.609375 1.000000
vt 0.562500 1.000000
vt 0.031250 0.187500
vt 0.000000 0.187500
vt 0.000000 0.140625
vt 0.031250 0.140625
vt 0.843750 0.953125
vt 0.812500 0.953125
vt 0.812500 1.000000
vt 0.843750 1.000000
s 1
usemtl m_ce793e7d-44a6-20dc-f1cc-303c4799443f
f 92/130/88 95/131/88 93/132/88 90/133/88
f 91/134/89 92/135/89 90/136/89 89/137/89
f 96/138/90 91/139/90 89/140/90 94/141/90
f 95/142/91 96/143/91 94/144/91 93/145/91
f 94/146/92 89/147/92 90/148/92 93/149/92
f 95/150/93 92/151/93 91/152/93 96/153/93
o cube.012
v 0.043750 0.937500 -0.031250
v 0.043750 0.937500 -0.062500
v 0.043750 0.687500 -0.031250
v 0.043750 0.687500 -0.062500
v 0.018750 0.937500 -0.062500
v 0.018750 0.937500 -0.031250
v 0.018750 0.687500 -0.062500
v 0.018750 0.687500 -0.031250
vn -0.0000 -0.0000 -1.0000
vn 1.0000 -0.0000 -0.0000
vn -0.0000 -0.0000 1.0000
vn -1.0000 -0.0000 -0.0000
vn -0.0000 1.0000 -0.0000
vn -0.0000 -1.0000 -0.0000
vt 0.687500 0.250000
vt 0.718750 0.250000
vt 0.718750 0.500000
vt 0.687500 0.500000
vt 0.625000 0.062500
vt 0.656250 0.062500
vt 0.656250 0.312500
vt 0.625000 0.312500
vt 0.750000 0.750000
vt 0.781250 0.750000
vt 0.781250 1.000000
vt 0.750000 1.000000
vt 0.375000 0.000000
vt 0.406250 0.000000
vt 0.406250 0.250000
vt 0.375000 0.250000
vt 0.843750 0.937500
vt 0.812500 0.937500
vt 0.812500 0.906250
vt 0.843750 0.906250
vt 0.843750 0.843750
vt 0.812500 0.843750
vt 0.812500 0.875000
vt 0.843750 0.875000
s 1
usemtl m_ce793e7d-44a6-20dc-f1cc-303c4799443f
f 100/154/94 103/155/94 101/156/94 98/157/94
f 99/158/95 100/159/95 98/160/95 97/161/95
f 104/162/96 99/163/96 97/164/96 102/165/96
f 103/166/97 104/167/97 102/168/97 101/169/97
f 102/170/98 97/171/98 98/172/98 101/173/98
f 103/174/99 100/175/99 99/176/99 104/177/99
o cube.013
v 0.031244 1.434795 0.018684
v 0.031244 1.429347 -0.043578
v 0.031244 0.936697 0.062262
v 0.031244 0.931250 -0.000000
v 0.031244 1.429347 -0.043578
v 0.031244 1.434795 0.018684
v 0.031244 0.931250 -0.000000
v 0.031244 0.936697 0.062262
vn -0.0000 -0.0000 -1.0000
vn -0.0000 -0.0871 -0.9962
vn 1.0000 -0.0000 -0.0000
vn -0.0000 -0.0000 1.0000
vn -0.0000 0.0871 0.9962
vn -1.0000 -0.0000 -0.0000
vn -0.0000 0.9962 -0.0871
vn -0.0000 0.9962 -0.0870
vn -0.0000 -0.9962 0.0872
vn -0.0000 -0.9962 0.0871
vt 0.000000 0.500000
vt 0.000000 1.000000
vt 0.250000 0.125000
vt 0.312500 0.125000
vt 0.312500 0.625000
vt 0.250000 0.625000
vt 0.375000 0.125000
vt 0.375000 0.625000
vt 0.000000 0.937500
s 0
usemtl m_ce793e7d-44a6-20dc-f1cc-303c4799443f
f 108/178/100 111/178/101 109/179/100 106/179/101
s 1
f 107/180/102 108/181/102 106/182/102 105/183/102
s 0
f 112/178/103 107/178/104 105/179/103 110/179/104
s 1
f 111/181/105 112/184/105 110/185/105 109/182/105
s 0
f 110/179/100 105/179/106 106/186/100 109/186/107
f 111/186/103 108/186/108 107/179/103 112/179/109
o cube.014
v 0.031237 1.621581 0.002342
v 0.031237 1.616134 -0.059920
v 0.031237 1.434795 0.018684
v 0.031237 1.429347 -0.043578
v 0.031237 1.616134 -0.059920
v 0.031237 1.621581 0.002342
v 0.031237 1.429347 -0.043578
v 0.031237 1.434795 0.018684
vn -0.0000 -0.0000 -1.0000
vn -0.0000 -0.0871 -0.9962
vn 1.0000 -0.0000 -0.0000
vn -0.0000 -0.0000 1.0000
vn -0.0000 0.0871 0.9962
vn -1.0000 -0.0000 -0.0000
vn -0.0000 0.9962 -0.0871
vn -0.0000 0.9962 -0.0870
vn -0.0000 -0.9962 0.0872
vn -0.0000 -0.9962 0.0871
vt 0.000000 0.812500
vt 0.000000 1.000000
vt 0.187500 0.312500
vt 0.250000 0.312500
vt 0.250000 0.500000
vt 0.187500 0.500000
vt 0.500000 0.500000
vt 0.562500 0.500000
vt 0.562500 0.687500
vt 0.500000 0.687500
vt 0.000000 0.937500
s 0
usemtl m_ce793e7d-44a6-20dc-f1cc-303c4799443f
f 116/187/110 119/187/111 117/188/110 114/188/111
s 1
f 115/189/112 116/190/112 114/191/112 113/192/112
s 0
f 120/187/113 115/187/114 113/188/113 118/188/114
s 1
f 119/193/115 120/194/115 118/195/115 117/196/115
s 0
f 118/188/110 113/188/116 114/197/110 117/197/117
f 119/197/113 116/197/118 115/188/113 120/188/119
o cube.015
v 0.031231 1.729639 -0.061228
v 0.031231 1.716514 -0.083961
v 0.031231 1.621386 0.001272
v 0.031231 1.608261 -0.021461
v 0.031231 1.716514 -0.083961
v 0.031231 1.729639 -0.061228
v 0.031231 1.608261 -0.021461
v 0.031231 1.621386 0.001272
vn -0.0000 -0.0000 -1.0000
vn -0.0000 -0.5000 -0.8660
vn 1.0000 -0.0000 -0.0000
vn -0.0000 -0.0000 1.0000
vn -0.0000 0.5000 0.8660
vn -1.0000 -0.0000 -0.0000
vn -0.0000 0.8660 -0.5000
vn -0.0000 0.8660 -0.5001
vn -0.0000 -0.8660 0.5000
vt 0.000000 0.875000
vt 0.000000 1.000000
vt 0.750000 0.375000
vt 0.781250 0.375000
vt 0.781250 0.500000
vt 0.750000 0.500000
vt 0.750000 0.250000
vt 0.781250 0.250000
vt 0.000000 0.968750
s 0
usemtl m_ce793e7d-44a6-20dc-f1cc-303c4799443f
f 124/198/120 127/198/121 125/199/120 122/199/121
s 1
f 123/200/122 124/201/122 122/202/122 121/203/122
s 0
f 128/198/123 123/198/124 121/199/123 126/199/124
s 1
f 127/204/125 128/205/125 126/201/125 125/200/125
s 0
f 126/199/120 121/199/126 122/206/120 125/206/127
f 127/206/123 124/206/128 123/199/123 128/199/128
o cube.016
v 0.031244 1.669050 -0.053671
v 0.031244 1.656550 -0.075322
v 0.031244 1.609511 -0.019296
v 0.031244 1.597011 -0.040947
v 0.031244 1.656550 -0.075322
v 0.031244 1.669050 -0.053671
v 0.031244 1.597011 -0.040947
v 0.031244 1.609511 -0.019296
vn -0.0000 -0.0000 -1.0000
vn -0.0000 -0.5000 -0.8660
vn 1.0000 -0.0000 -0.0000
vn -0.0000 -0.0000 1.0000
vn -0.0000 0.5000 0.8660
vn -1.0000 -0.0000 -0.0000
vn -0.0000 0.8660 -0.5000
vn -0.0000 0.8660 -0.5001
vn -0.0000 -0.8660 0.5000
vt 0.000000 0.937500
vt 0.000000 1.000000
vt 0.687500 0.187500
vt 0.718750 0.187500
vt 0.718750 0.250000
vt 0.687500 0.250000
vt 0.750000 0.187500
vt 0.781250 0.187500
vt 0.781250 0.250000
vt 0.750000 0.250000
vt 0.000000 0.968750
s 0
usemtl m_ce793e7d-44a6-20dc-f1cc-303c4799443f
f 132/207/129 135/207/130 133/208/129 130/208/130
s 1
f 131/209/131 132/210/131 130/211/131 129/212/131
s 0
f 136/207/132 131/207/133 129/208/132 134/208/133
s 1
f 135/213/134 136/214/134 134/215/134 133/216/134
s 0
f 134/208/129 129/208/135 130/217/129 133/217/136
f 135/217/132 132/217/137 131/208/132 136/208/137
